/* XPM */
static char *nvagent_ico_xpm[] = {
/* columns rows colors chars-per-pixel */
"64 64 215 2 ",
"   c None",
".  c #418CFF",
"X  c #418DFF",
"o  c #428CFF",
"O  c #438CFF",
"+  c #428DFF",
"@  c #438DFF",
"#  c #418EFF",
"$  c #428EFF",
"%  c #438EFF",
"&  c #458EFE",
"*  c #458FFE",
"=  c #448EFF",
"-  c #458EFF",
";  c #448FFF",
":  c #478FFE",
">  c #468FFF",
",  c #4690FF",
"<  c #4790FF",
"1  c #4890FE",
"2  c #4991FE",
"3  c #4890FF",
"4  c #4991FF",
"5  c #4B92FE",
"6  c #4A92FF",
"7  c #4B92FF",
"8  c #4D93FE",
"9  c #4C93FF",
"0  c #4F94FE",
"q  c #4E94FF",
"w  c #5195FE",
"e  c #5196FF",
"r  c #5296FE",
"t  c #5396FE",
"y  c #5397FF",
"u  c #5496FD",
"i  c #5497FE",
"p  c #5698FD",
"a  c #5798FD",
"s  c #5598FE",
"d  c #5598FF",
"f  c #5899FD",
"g  c #5B9AFD",
"h  c #5C9BFD",
"j  c #5F9DFD",
"k  c #5D9DFF",
"l  c #5D9EFF",
"z  c #5F9FFF",
"x  c #619EFC",
"c  c #639FFC",
"v  c #609FFF",
"b  c #67A1FC",
"n  c #67A3FE",
"m  c #67A3FF",
"M  c #6DA4FB",
"N  c #6FA5FB",
"B  c #68A2FC",
"V  c #68A3FD",
"C  c #6AA3FC",
"Z  c #6BA3FC",
"A  c #69A5FF",
"S  c #6CA4FC",
"D  c #6DA5FC",
"F  c #6FA7FC",
"G  c #6CA6FF",
"H  c #74A8FB",
"J  c #74A9FB",
"K  c #75A9FB",
"L  c #76A9FB",
"P  c #75AAFB",
"I  c #73AAFF",
"U  c #74ABFF",
"Y  c #76ACFF",
"T  c #78AAFB",
"R  c #7AABFA",
"E  c #7BACFA",
"W  c #7CACFA",
"Q  c #7DADFA",
"!  c #7EADFA",
"~  c #7FAEFA",
"^  c #7DB0FD",
"/  c #82B0FA",
"(  c #83B2FA",
")  c #87B2F9",
"_  c #87B3F9",
"`  c #87B4F9",
"'  c #83B4FF",
"]  c #85B4FD",
"[  c #84B5FF",
"{  c #86B6FF",
"}  c #89B3F9",
"|  c #89B5F9",
" . c #8BB6F9",
".. c #8EB6F9",
"X. c #8AB7FD",
"o. c #8CBAFF",
"O. c #90B7F9",
"+. c #95BAF8",
"@. c #96BBF8",
"#. c #96BCF8",
"$. c #97BCF8",
"%. c #97BDF8",
"&. c #90BCFF",
"*. c #95BFFF",
"=. c #99BCF8",
"-. c #9ABDF8",
";. c #9BBDF8",
":. c #99BEF8",
">. c #98C1FF",
",. c #9AC2FF",
"<. c #9EC4FF",
"1. c #9FC5FF",
"2. c #A1C0F7",
"3. c #A3C2F7",
"4. c #A4C2F7",
"5. c #A6C3F7",
"6. c #A7C4F7",
"7. c #A6C5F7",
"8. c #A7C5F7",
"9. c #A8C4F7",
"0. c #AAC5F7",
"q. c #A8C6F7",
"w. c #ABC6F6",
"e. c #AFC8F6",
"r. c #AFCAF6",
"t. c #A2C7FF",
"y. c #A3C8FF",
"u. c #A5C8FF",
"i. c #A6C9FF",
"p. c #AAC9F9",
"a. c #AACCFF",
"s. c #ABCCFF",
"d. c #ACCDFF",
"f. c #ADCDFF",
"g. c #B2CAF6",
"h. c #B4CBF6",
"j. c #B5CCF6",
"k. c #B5CDF6",
"l. c #B6CCF6",
"z. c #B8CDF5",
"x. c #B9CFF5",
"c. c #B9D0F5",
"v. c #BAD0F5",
"b. c #BBD0F5",
"n. c #BCD0F5",
"m. c #BDD1F5",
"M. c #BFD2F5",
"N. c #B1D0FF",
"B. c #B5D2FF",
"V. c #B6D3FF",
"C. c #BED7FD",
"Z. c #BDD7FF",
"A. c #C0D2F5",
"S. c #C0D3F5",
"D. c #C1D3F5",
"F. c #C4D5F4",
"G. c #C5D5F4",
"H. c #C6D6F4",
"J. c #C7D6F4",
"K. c #CADAF6",
"L. c #C3DBFF",
"P. c #CADDFD",
"I. c #C9DEFF",
"U. c #CADFFF",
"Y. c #CBE0FF",
"T. c #D7E0F3",
"R. c #DAE1F3",
"E. c #DBE2F3",
"W. c #DDE3F2",
"Q. c #DEE3F2",
"!. c #DDE4F2",
"~. c #DEE4F2",
"^. c #DFE4F2",
"/. c #D2E4FF",
"(. c #D3E4FF",
"). c #E1E6F2",
"_. c #E2E7F2",
"`. c #E3E7F2",
"'. c #E3E7F3",
"]. c #E4E7F2",
"[. c #E4E8F2",
"{. c #E4E8F3",
"}. c #E5E8F3",
"|. c #E7EAF4",
" X c #E7EBF4",
".X c #E9ECF5",
"XX c #E9EDF6",
"oX c #EBEEF6",
"OX c #ECEFF6",
"+X c #E0ECFF",
"@X c #E8EEF8",
"#X c #EDF0F7",
"$X c #E7F1FF",
"%X c #E9F2FE",
"&X c #F0F2F8",
"*X c #F1F3F9",
"=X c #F2F4F9",
"-X c #F3F5F9",
";X c #F1F4FB",
":X c #F4F6FA",
">X c #F5F7FB",
",X c #F6F7FB",
"<X c #F2F7FF",
"1X c #F6F8FB",
"2X c #F8F9FC",
"3X c #F9FAFC",
"4X c #FAFBFD",
"5X c #FBFCFD",
"6X c #FBFCFF",
"7X c #FCFDFE",
"8X c #FDFDFE",
"9X c #FDFEFF",
"0X c #FEFEFF",
"qX c #FEFFFF",
"wX c white",
/* pixels */
"                                                                                                + + @ @ + +                     ",
"                                                                                            > + + + + + + + + +                 ",
"                                                                                        ; + + d ^ :.v.c.%.C 5 + + %             ",
"                                                                                      & + + &.@X`.`.`.`.`.`.D.B + + +           ",
"                                                                                    + + e Y.*X`.`.`.`.`.`.`.`.M.) 1 + O         ",
"                                                                                    $ + L.8X{.`.`.`.`.`.`.`.`.~.9./ + @         ",
"                                                                                  @ + [ wX&X`.`.`.`.`.`.`.`.`.`.H.4.x + o       ",
"                                                                                  + < <XwX{.`.`.`.`.`.`.`.`.`.`.~.4.;.% +       ",
"                                                                                  + A wX5X`.`.`.`.`.`.`.`.`.`.`.`.0.4.t +       ",
"                                                                                X + &.wX1X`.`.`.`.`.`.`.`.`.`.`.`.j.4.b + $     ",
"                                                                                + + V.wX=X`.`.`.`.`.`.`.`.`.`.`.`.M.4.E + +     ",
"                                                                                $ + s.wX-X`.`.`.`.`.`.`.`.`.`.`.`.n.4.K + +     ",
"                                                                                + + [ wX2X`.`.`.`.`.`.`.`.`.`.`.`.g.4.x + +     ",
"                                                                                  + l wX7X`.`.`.`.`.`.`.`.`.`.`.`.6.4.8 +       ",
"                                                                                  + + /.wX|.`.`.`.`.`.`.`.`.`.`.R.4...+ +       ",
"                                                                                + + + z 6X:X`.`.`.`.`.`.`.`.`.`.b.2.w + $       ",
"                                                                            + + + + = + <.wX X`.`.`.`.`.`.`.`.T.4.N + +         ",
"                                                                        $ + + +       + % *.;X[.`.`.`.`.`.`._.e.Z + +           ",
"                                                                      + + + $         @ + + l P.'.`.`.`.`.W.@.0 + + +           ",
"                                                                  + + + +                 > + + 4 V ` _ c > + + +               ",
"                                                              + + + +                       $ @ + + + + + + + X                 ",
"                      X + + X                               + + + +                                 + +                         ",
"                * + + + + + + + + +                     + + + +                                                                 ",
"              = + > n X.p.7.( g - + + +             @ + + +                                                                     ",
"          ; + + Y %XoX`.`.`.`.`.j.j + + @         + + + +                                                                       ",
"          + 4 B.8X.X`.`.`.`.`.`.`.m.~ : + .   + + + +                                                                           ",
"        $ + N.wX#X`.`.`.`.`.`.`.`.!.6.! + @ $ + +                                                                               ",
"      + + I qX4X`.`.`.`.`.`.`.`.`.`.F.4.f + + +                                                                                 ",
"      + % $XwXOX`.`.`.`.`.`.`.`.`.`.^.4.=.% +                                                                                   ",
"      + v wXqX].`.`.`.`.`.`.`.`.`.`.`.w.4.i +                                                                                   ",
"    O + { wX4X`.`.`.`.`.`.`.`.`.`.`.`.l.4.B + +                                                                                 ",
"    # + d.wX,X`.`.`.`.`.`.`.`.`.`.`.`.S.4.W + @                                                                                 ",
"    . + a.wX=X`.`.`.`.`.`.`.`.`.`.`.`.A.4.E + X                                                                                 ",
"    @ + ' wX>X`.`.`.`.`.`.`.`.`.`.`.`.j.4.b + $                                                                                 ",
"      + k wX4X`.`.`.`.`.`.`.`.`.`.`.`.0.4.t +                                                                                   ",
"      + + +X0X`.`.`.`.`.`.`.`.`.`.`.!.4.+.+ +                                                                                   ",
"      + + A 9XoX`.`.`.`.`.`.`.`.`.`.D.3.u + + $                                                                                 ",
"        & + u.3X`.`.`.`.`.`.`.`.`.E.5.T + + + + + X                                                                             ",
"          + > y.XX`.`.`.`.`.`.`.`.z.L = +     + + + +                                                                           ",
"          = + + m K.`.`.`.`.`.).8.a + + %         @ + + +                                                                       ",
"              < + + s P #.$.J 0 + + $               $ + + + +                                                                   ",
"                6 + + + + + + + + +                     o + + $                                                                 ",
"                      , e q +                               + + + +                                 X O                         ",
"                                                              + + + + @                     o % + + + + + + + +                 ",
"                                                                  + + + X                 > + + y F |  .D 8 + + +               ",
"                                                                      + + + @         + + + v C.}.`.`.`.`.Q.O.p + +             ",
"                                                                        + + + +       + + 1.>X[.`.`.`.`.`.`._.h.M + $           ",
"                                                                            + + + + @ + >.wX X`.`.`.`.`.`.`.`.T.4.H + +         ",
"                                                                                + + + U wX:X`.`.`.`.`.`.`.`.`.`.b.4.a + %       ",
"                                                                                  + + U.wX|.`.`.`.`.`.`.`.`.`.`.R.4.O.+ +       ",
"                                                                                  + G wX7X`.`.`.`.`.`.`.`.`.`.`.`.6.4.r +       ",
"                                                                                @ + ,.wX2X`.`.`.`.`.`.`.`.`.`.`.`.g.4.C + X     ",
"                                                                                + + f.wX-X`.`.`.`.`.`.`.`.`.`.`.`.n.4.Q + o     ",
"                                                                                $ + Z.wX=X`.`.`.`.`.`.`.`.`.`.`.`.M.4.R + .     ",
"                                                                                X + t.wX1X`.`.`.`.`.`.`.`.`.`.`.`.j.4.H + o     ",
"                                                                                @ + U wX5X`.`.`.`.`.`.`.`.`.`.`.`.0.4.h +       ",
"                                                                                  + 4 <XwX{.`.`.`.`.`.`.`.`.`.`.~.4.-.@ +       ",
"                                                                                  + + o.wX&X`.`.`.`.`.`.`.`.`.`.J.4.M + +       ",
"                                                                                    + @ (.8X{.`.`.`.`.`.`.`.`.^.9.) + +         ",
"                                                                                    + + 9 I.*X`.`.`.`.`.`.`.`.M.} 1 + X         ",
"                                                                                      : + = i.@X`.`.`.`.`.`.G.N + + +           ",
"                                                                                        % + + 7 ] r.k.x.q.S 2 + $ o             ",
"                                                                                            3 + + + + + + + + +                 ",
"                                                                                                + + + @ % .                     "
};
